<mxfile host="app.diagrams.net" modified="2023-08-21T16:40:15.880Z" agent="Mozilla/5.0 (Windows NT 10.0; Win64; x64) AppleWebKit/537.36 (KHTML, like Gecko) Chrome/115.0.0.0 Safari/537.36 Edg/115.0.1901.203" etag="0-xaFhfymuqMkuGyXcck" version="21.6.8" type="google">
  <diagram name="Page-1" id="b9MQAq3G-YwtCbmIQPJZ">
    <mxGraphModel grid="1" page="1" gridSize="10" guides="1" tooltips="1" connect="1" arrows="1" fold="1" pageScale="1" pageWidth="850" pageHeight="1100" math="0" shadow="0">
      <root>
        <mxCell id="0" />
        <mxCell id="1" parent="0" />
        <mxCell id="V3eCF3sffz6E1XjTLxn0-2" value="Actor" style="shape=umlActor;verticalLabelPosition=bottom;verticalAlign=top;html=1;outlineConnect=0;" vertex="1" parent="1">
          <mxGeometry x="620" y="820" width="60" height="110" as="geometry" />
        </mxCell>
        <mxCell id="V3eCF3sffz6E1XjTLxn0-3" value="CLOUD" style="ellipse;shape=cloud;whiteSpace=wrap;html=1;align=left;" vertex="1" parent="1">
          <mxGeometry x="80" y="90" width="240" height="170" as="geometry" />
        </mxCell>
        <mxCell id="V3eCF3sffz6E1XjTLxn0-1" value="DB" style="shape=cylinder3;whiteSpace=wrap;html=1;boundedLbl=1;backgroundOutline=1;size=15;" vertex="1" parent="1">
          <mxGeometry x="180" y="160" width="70" height="70" as="geometry" />
        </mxCell>
        <mxCell id="V3eCF3sffz6E1XjTLxn0-4" value="" style="shape=flexArrow;endArrow=classic;startArrow=classic;html=1;rounded=0;entryX=0.875;entryY=0.824;entryDx=0;entryDy=0;entryPerimeter=0;" edge="1" parent="1" target="V3eCF3sffz6E1XjTLxn0-3">
          <mxGeometry width="100" height="100" relative="1" as="geometry">
            <mxPoint x="460" y="260" as="sourcePoint" />
            <mxPoint x="425" y="220" as="targetPoint" />
            <Array as="points">
              <mxPoint x="380" y="260" />
            </Array>
          </mxGeometry>
        </mxCell>
        <mxCell id="V3eCF3sffz6E1XjTLxn0-5" value="APPLICATION" style="swimlane;whiteSpace=wrap;html=1;startSize=23;" vertex="1" parent="1">
          <mxGeometry x="440" y="80" width="350" height="600" as="geometry" />
        </mxCell>
        <mxCell id="V3eCF3sffz6E1XjTLxn0-9" value="Iterate Through Tags" style="shape=document;whiteSpace=wrap;html=1;boundedLbl=1;" vertex="1" parent="V3eCF3sffz6E1XjTLxn0-5">
          <mxGeometry x="90" y="40" width="110" height="60" as="geometry" />
        </mxCell>
        <mxCell id="V3eCF3sffz6E1XjTLxn0-10" value="Display Tag Comment" style="shape=parallelogram;perimeter=parallelogramPerimeter;whiteSpace=wrap;html=1;fixedSize=1;" vertex="1" parent="V3eCF3sffz6E1XjTLxn0-5">
          <mxGeometry x="60" y="130" width="160" height="60" as="geometry" />
        </mxCell>
        <mxCell id="V3eCF3sffz6E1XjTLxn0-11" value="Take User I/P" style="shape=parallelogram;perimeter=parallelogramPerimeter;whiteSpace=wrap;html=1;fixedSize=1;" vertex="1" parent="V3eCF3sffz6E1XjTLxn0-5">
          <mxGeometry x="70" y="230" width="120" height="60" as="geometry" />
        </mxCell>
        <mxCell id="V3eCF3sffz6E1XjTLxn0-12" value="" style="endArrow=classic;html=1;rounded=0;entryX=0.5;entryY=0;entryDx=0;entryDy=0;" edge="1" parent="V3eCF3sffz6E1XjTLxn0-5" target="V3eCF3sffz6E1XjTLxn0-10">
          <mxGeometry width="50" height="50" relative="1" as="geometry">
            <mxPoint x="144.5" y="90" as="sourcePoint" />
            <mxPoint x="144.5" y="160" as="targetPoint" />
          </mxGeometry>
        </mxCell>
        <mxCell id="V3eCF3sffz6E1XjTLxn0-15" value="" style="endArrow=classic;html=1;rounded=0;entryX=0.5;entryY=0;entryDx=0;entryDy=0;" edge="1" parent="V3eCF3sffz6E1XjTLxn0-5" target="V3eCF3sffz6E1XjTLxn0-11">
          <mxGeometry width="50" height="50" relative="1" as="geometry">
            <mxPoint x="135" y="190" as="sourcePoint" />
            <mxPoint x="155" y="280" as="targetPoint" />
          </mxGeometry>
        </mxCell>
        <mxCell id="V3eCF3sffz6E1XjTLxn0-16" value="isEndTag" style="rhombus;whiteSpace=wrap;html=1;" vertex="1" parent="V3eCF3sffz6E1XjTLxn0-5">
          <mxGeometry x="80" y="320" width="80" height="80" as="geometry" />
        </mxCell>
        <mxCell id="V3eCF3sffz6E1XjTLxn0-17" value="" style="endArrow=classic;html=1;rounded=0;exitX=1;exitY=0.5;exitDx=0;exitDy=0;" edge="1" parent="V3eCF3sffz6E1XjTLxn0-5" source="V3eCF3sffz6E1XjTLxn0-16">
          <mxGeometry width="50" height="50" relative="1" as="geometry">
            <mxPoint x="200" y="380" as="sourcePoint" />
            <mxPoint x="210" y="60" as="targetPoint" />
            <Array as="points">
              <mxPoint x="240" y="360" />
              <mxPoint x="290" y="60" />
            </Array>
          </mxGeometry>
        </mxCell>
        <mxCell id="V3eCF3sffz6E1XjTLxn0-20" value="Populate hashtable" style="shape=process;whiteSpace=wrap;html=1;backgroundOutline=1;" vertex="1" parent="V3eCF3sffz6E1XjTLxn0-5">
          <mxGeometry x="60" y="430" width="120" height="60" as="geometry" />
        </mxCell>
        <mxCell id="V3eCF3sffz6E1XjTLxn0-23" value="Replace Tags and Display Final Content" style="shape=document;whiteSpace=wrap;html=1;boundedLbl=1;" vertex="1" parent="V3eCF3sffz6E1XjTLxn0-5">
          <mxGeometry x="70" y="520" width="120" height="80" as="geometry" />
        </mxCell>
        <mxCell id="V3eCF3sffz6E1XjTLxn0-24" value="" style="endArrow=classic;html=1;rounded=0;" edge="1" parent="V3eCF3sffz6E1XjTLxn0-5">
          <mxGeometry width="50" height="50" relative="1" as="geometry">
            <mxPoint x="119.5" y="490" as="sourcePoint" />
            <mxPoint x="120" y="520" as="targetPoint" />
          </mxGeometry>
        </mxCell>
        <mxCell id="V3eCF3sffz6E1XjTLxn0-25" value="" style="endArrow=classic;html=1;rounded=0;" edge="1" parent="V3eCF3sffz6E1XjTLxn0-5">
          <mxGeometry width="50" height="50" relative="1" as="geometry">
            <mxPoint x="119.5" y="390" as="sourcePoint" />
            <mxPoint x="120" y="420" as="targetPoint" />
          </mxGeometry>
        </mxCell>
        <mxCell id="V3eCF3sffz6E1XjTLxn0-26" value="No" style="text;html=1;align=center;verticalAlign=middle;resizable=0;points=[];autosize=1;strokeColor=none;fillColor=none;" vertex="1" parent="V3eCF3sffz6E1XjTLxn0-5">
          <mxGeometry x="180" y="330" width="40" height="30" as="geometry" />
        </mxCell>
        <mxCell id="V3eCF3sffz6E1XjTLxn0-27" value="Yes" style="text;html=1;align=center;verticalAlign=middle;resizable=0;points=[];autosize=1;strokeColor=none;fillColor=none;" vertex="1" parent="V3eCF3sffz6E1XjTLxn0-5">
          <mxGeometry x="140" y="390" width="40" height="30" as="geometry" />
        </mxCell>
        <mxCell id="V3eCF3sffz6E1XjTLxn0-6" value="" style="shape=flexArrow;endArrow=classic;startArrow=classic;html=1;rounded=0;entryX=0.5;entryY=1;entryDx=0;entryDy=0;" edge="1" parent="1" source="V3eCF3sffz6E1XjTLxn0-2" target="V3eCF3sffz6E1XjTLxn0-5">
          <mxGeometry width="100" height="100" relative="1" as="geometry">
            <mxPoint x="730" y="540" as="sourcePoint" />
            <mxPoint x="650" y="410" as="targetPoint" />
          </mxGeometry>
        </mxCell>
        <mxCell id="V3eCF3sffz6E1XjTLxn0-7" value="TAGGED&lt;br&gt;DATA" style="shape=note;whiteSpace=wrap;html=1;backgroundOutline=1;darkOpacity=0.05;" vertex="1" parent="1">
          <mxGeometry x="10" y="40" width="80" height="100" as="geometry" />
        </mxCell>
        <mxCell id="V3eCF3sffz6E1XjTLxn0-8" value="FINAL DATA" style="shape=card;whiteSpace=wrap;html=1;" vertex="1" parent="1">
          <mxGeometry x="480" y="840" width="80" height="100" as="geometry" />
        </mxCell>
        <mxCell id="V3eCF3sffz6E1XjTLxn0-28" value="Master Table" style="shape=table;startSize=30;container=1;collapsible=0;childLayout=tableLayout;strokeColor=default;fontSize=16;" vertex="1" parent="1">
          <mxGeometry x="50" y="300" width="110" height="89" as="geometry" />
        </mxCell>
        <mxCell id="V3eCF3sffz6E1XjTLxn0-29" value="" style="shape=tableRow;horizontal=0;startSize=0;swimlaneHead=0;swimlaneBody=0;strokeColor=inherit;top=0;left=0;bottom=0;right=0;collapsible=0;dropTarget=0;fillColor=none;points=[[0,0.5],[1,0.5]];portConstraint=eastwest;fontSize=16;" vertex="1" parent="V3eCF3sffz6E1XjTLxn0-28">
          <mxGeometry y="30" width="110" height="20" as="geometry" />
        </mxCell>
        <mxCell id="V3eCF3sffz6E1XjTLxn0-30" value="" style="shape=partialRectangle;html=1;whiteSpace=wrap;connectable=0;strokeColor=inherit;overflow=hidden;fillColor=none;top=0;left=0;bottom=0;right=0;pointerEvents=1;fontSize=16;" vertex="1" parent="V3eCF3sffz6E1XjTLxn0-29">
          <mxGeometry width="36" height="20" as="geometry">
            <mxRectangle width="36" height="20" as="alternateBounds" />
          </mxGeometry>
        </mxCell>
        <mxCell id="V3eCF3sffz6E1XjTLxn0-31" value="" style="shape=partialRectangle;html=1;whiteSpace=wrap;connectable=0;strokeColor=inherit;overflow=hidden;fillColor=none;top=0;left=0;bottom=0;right=0;pointerEvents=1;fontSize=16;" vertex="1" parent="V3eCF3sffz6E1XjTLxn0-29">
          <mxGeometry x="36" width="38" height="20" as="geometry">
            <mxRectangle width="38" height="20" as="alternateBounds" />
          </mxGeometry>
        </mxCell>
        <mxCell id="V3eCF3sffz6E1XjTLxn0-32" value="" style="shape=partialRectangle;html=1;whiteSpace=wrap;connectable=0;strokeColor=inherit;overflow=hidden;fillColor=none;top=0;left=0;bottom=0;right=0;pointerEvents=1;fontSize=16;" vertex="1" parent="V3eCF3sffz6E1XjTLxn0-29">
          <mxGeometry x="74" width="36" height="20" as="geometry">
            <mxRectangle width="36" height="20" as="alternateBounds" />
          </mxGeometry>
        </mxCell>
        <mxCell id="V3eCF3sffz6E1XjTLxn0-33" value="" style="shape=tableRow;horizontal=0;startSize=0;swimlaneHead=0;swimlaneBody=0;strokeColor=inherit;top=0;left=0;bottom=0;right=0;collapsible=0;dropTarget=0;fillColor=none;points=[[0,0.5],[1,0.5]];portConstraint=eastwest;fontSize=16;" vertex="1" parent="V3eCF3sffz6E1XjTLxn0-28">
          <mxGeometry y="50" width="110" height="20" as="geometry" />
        </mxCell>
        <mxCell id="V3eCF3sffz6E1XjTLxn0-34" value="" style="shape=partialRectangle;html=1;whiteSpace=wrap;connectable=0;strokeColor=inherit;overflow=hidden;fillColor=none;top=0;left=0;bottom=0;right=0;pointerEvents=1;fontSize=16;" vertex="1" parent="V3eCF3sffz6E1XjTLxn0-33">
          <mxGeometry width="36" height="20" as="geometry">
            <mxRectangle width="36" height="20" as="alternateBounds" />
          </mxGeometry>
        </mxCell>
        <mxCell id="V3eCF3sffz6E1XjTLxn0-35" value="" style="shape=partialRectangle;html=1;whiteSpace=wrap;connectable=0;strokeColor=inherit;overflow=hidden;fillColor=none;top=0;left=0;bottom=0;right=0;pointerEvents=1;fontSize=16;" vertex="1" parent="V3eCF3sffz6E1XjTLxn0-33">
          <mxGeometry x="36" width="38" height="20" as="geometry">
            <mxRectangle width="38" height="20" as="alternateBounds" />
          </mxGeometry>
        </mxCell>
        <mxCell id="V3eCF3sffz6E1XjTLxn0-36" value="" style="shape=partialRectangle;html=1;whiteSpace=wrap;connectable=0;strokeColor=inherit;overflow=hidden;fillColor=none;top=0;left=0;bottom=0;right=0;pointerEvents=1;fontSize=16;" vertex="1" parent="V3eCF3sffz6E1XjTLxn0-33">
          <mxGeometry x="74" width="36" height="20" as="geometry">
            <mxRectangle width="36" height="20" as="alternateBounds" />
          </mxGeometry>
        </mxCell>
        <mxCell id="V3eCF3sffz6E1XjTLxn0-37" value="" style="shape=tableRow;horizontal=0;startSize=0;swimlaneHead=0;swimlaneBody=0;strokeColor=inherit;top=0;left=0;bottom=0;right=0;collapsible=0;dropTarget=0;fillColor=none;points=[[0,0.5],[1,0.5]];portConstraint=eastwest;fontSize=16;" vertex="1" parent="V3eCF3sffz6E1XjTLxn0-28">
          <mxGeometry y="70" width="110" height="19" as="geometry" />
        </mxCell>
        <mxCell id="V3eCF3sffz6E1XjTLxn0-38" value="" style="shape=partialRectangle;html=1;whiteSpace=wrap;connectable=0;strokeColor=inherit;overflow=hidden;fillColor=none;top=0;left=0;bottom=0;right=0;pointerEvents=1;fontSize=16;" vertex="1" parent="V3eCF3sffz6E1XjTLxn0-37">
          <mxGeometry width="36" height="19" as="geometry">
            <mxRectangle width="36" height="19" as="alternateBounds" />
          </mxGeometry>
        </mxCell>
        <mxCell id="V3eCF3sffz6E1XjTLxn0-39" value="" style="shape=partialRectangle;html=1;whiteSpace=wrap;connectable=0;strokeColor=inherit;overflow=hidden;fillColor=none;top=0;left=0;bottom=0;right=0;pointerEvents=1;fontSize=16;" vertex="1" parent="V3eCF3sffz6E1XjTLxn0-37">
          <mxGeometry x="36" width="38" height="19" as="geometry">
            <mxRectangle width="38" height="19" as="alternateBounds" />
          </mxGeometry>
        </mxCell>
        <mxCell id="V3eCF3sffz6E1XjTLxn0-40" value="" style="shape=partialRectangle;html=1;whiteSpace=wrap;connectable=0;strokeColor=inherit;overflow=hidden;fillColor=none;top=0;left=0;bottom=0;right=0;pointerEvents=1;fontSize=16;" vertex="1" parent="V3eCF3sffz6E1XjTLxn0-37">
          <mxGeometry x="74" width="36" height="19" as="geometry">
            <mxRectangle width="36" height="19" as="alternateBounds" />
          </mxGeometry>
        </mxCell>
        <mxCell id="V3eCF3sffz6E1XjTLxn0-41" value="Lookup Table" style="shape=table;startSize=30;container=1;collapsible=0;childLayout=tableLayout;strokeColor=default;fontSize=16;" vertex="1" parent="1">
          <mxGeometry x="220" y="300" width="110" height="89" as="geometry" />
        </mxCell>
        <mxCell id="V3eCF3sffz6E1XjTLxn0-42" value="" style="shape=tableRow;horizontal=0;startSize=0;swimlaneHead=0;swimlaneBody=0;strokeColor=inherit;top=0;left=0;bottom=0;right=0;collapsible=0;dropTarget=0;fillColor=none;points=[[0,0.5],[1,0.5]];portConstraint=eastwest;fontSize=16;" vertex="1" parent="V3eCF3sffz6E1XjTLxn0-41">
          <mxGeometry y="30" width="110" height="20" as="geometry" />
        </mxCell>
        <mxCell id="V3eCF3sffz6E1XjTLxn0-43" value="" style="shape=partialRectangle;html=1;whiteSpace=wrap;connectable=0;strokeColor=inherit;overflow=hidden;fillColor=none;top=0;left=0;bottom=0;right=0;pointerEvents=1;fontSize=16;" vertex="1" parent="V3eCF3sffz6E1XjTLxn0-42">
          <mxGeometry width="36" height="20" as="geometry">
            <mxRectangle width="36" height="20" as="alternateBounds" />
          </mxGeometry>
        </mxCell>
        <mxCell id="V3eCF3sffz6E1XjTLxn0-44" value="" style="shape=partialRectangle;html=1;whiteSpace=wrap;connectable=0;strokeColor=inherit;overflow=hidden;fillColor=none;top=0;left=0;bottom=0;right=0;pointerEvents=1;fontSize=16;" vertex="1" parent="V3eCF3sffz6E1XjTLxn0-42">
          <mxGeometry x="36" width="38" height="20" as="geometry">
            <mxRectangle width="38" height="20" as="alternateBounds" />
          </mxGeometry>
        </mxCell>
        <mxCell id="V3eCF3sffz6E1XjTLxn0-45" value="" style="shape=partialRectangle;html=1;whiteSpace=wrap;connectable=0;strokeColor=inherit;overflow=hidden;fillColor=none;top=0;left=0;bottom=0;right=0;pointerEvents=1;fontSize=16;" vertex="1" parent="V3eCF3sffz6E1XjTLxn0-42">
          <mxGeometry x="74" width="36" height="20" as="geometry">
            <mxRectangle width="36" height="20" as="alternateBounds" />
          </mxGeometry>
        </mxCell>
        <mxCell id="V3eCF3sffz6E1XjTLxn0-46" value="" style="shape=tableRow;horizontal=0;startSize=0;swimlaneHead=0;swimlaneBody=0;strokeColor=inherit;top=0;left=0;bottom=0;right=0;collapsible=0;dropTarget=0;fillColor=none;points=[[0,0.5],[1,0.5]];portConstraint=eastwest;fontSize=16;" vertex="1" parent="V3eCF3sffz6E1XjTLxn0-41">
          <mxGeometry y="50" width="110" height="20" as="geometry" />
        </mxCell>
        <mxCell id="V3eCF3sffz6E1XjTLxn0-47" value="" style="shape=partialRectangle;html=1;whiteSpace=wrap;connectable=0;strokeColor=inherit;overflow=hidden;fillColor=none;top=0;left=0;bottom=0;right=0;pointerEvents=1;fontSize=16;" vertex="1" parent="V3eCF3sffz6E1XjTLxn0-46">
          <mxGeometry width="36" height="20" as="geometry">
            <mxRectangle width="36" height="20" as="alternateBounds" />
          </mxGeometry>
        </mxCell>
        <mxCell id="V3eCF3sffz6E1XjTLxn0-48" value="" style="shape=partialRectangle;html=1;whiteSpace=wrap;connectable=0;strokeColor=inherit;overflow=hidden;fillColor=none;top=0;left=0;bottom=0;right=0;pointerEvents=1;fontSize=16;" vertex="1" parent="V3eCF3sffz6E1XjTLxn0-46">
          <mxGeometry x="36" width="38" height="20" as="geometry">
            <mxRectangle width="38" height="20" as="alternateBounds" />
          </mxGeometry>
        </mxCell>
        <mxCell id="V3eCF3sffz6E1XjTLxn0-49" value="" style="shape=partialRectangle;html=1;whiteSpace=wrap;connectable=0;strokeColor=inherit;overflow=hidden;fillColor=none;top=0;left=0;bottom=0;right=0;pointerEvents=1;fontSize=16;" vertex="1" parent="V3eCF3sffz6E1XjTLxn0-46">
          <mxGeometry x="74" width="36" height="20" as="geometry">
            <mxRectangle width="36" height="20" as="alternateBounds" />
          </mxGeometry>
        </mxCell>
        <mxCell id="V3eCF3sffz6E1XjTLxn0-50" value="" style="shape=tableRow;horizontal=0;startSize=0;swimlaneHead=0;swimlaneBody=0;strokeColor=inherit;top=0;left=0;bottom=0;right=0;collapsible=0;dropTarget=0;fillColor=none;points=[[0,0.5],[1,0.5]];portConstraint=eastwest;fontSize=16;" vertex="1" parent="V3eCF3sffz6E1XjTLxn0-41">
          <mxGeometry y="70" width="110" height="19" as="geometry" />
        </mxCell>
        <mxCell id="V3eCF3sffz6E1XjTLxn0-51" value="" style="shape=partialRectangle;html=1;whiteSpace=wrap;connectable=0;strokeColor=inherit;overflow=hidden;fillColor=none;top=0;left=0;bottom=0;right=0;pointerEvents=1;fontSize=16;" vertex="1" parent="V3eCF3sffz6E1XjTLxn0-50">
          <mxGeometry width="36" height="19" as="geometry">
            <mxRectangle width="36" height="19" as="alternateBounds" />
          </mxGeometry>
        </mxCell>
        <mxCell id="V3eCF3sffz6E1XjTLxn0-52" value="" style="shape=partialRectangle;html=1;whiteSpace=wrap;connectable=0;strokeColor=inherit;overflow=hidden;fillColor=none;top=0;left=0;bottom=0;right=0;pointerEvents=1;fontSize=16;" vertex="1" parent="V3eCF3sffz6E1XjTLxn0-50">
          <mxGeometry x="36" width="38" height="19" as="geometry">
            <mxRectangle width="38" height="19" as="alternateBounds" />
          </mxGeometry>
        </mxCell>
        <mxCell id="V3eCF3sffz6E1XjTLxn0-53" value="" style="shape=partialRectangle;html=1;whiteSpace=wrap;connectable=0;strokeColor=inherit;overflow=hidden;fillColor=none;top=0;left=0;bottom=0;right=0;pointerEvents=1;fontSize=16;" vertex="1" parent="V3eCF3sffz6E1XjTLxn0-50">
          <mxGeometry x="74" width="36" height="19" as="geometry">
            <mxRectangle width="36" height="19" as="alternateBounds" />
          </mxGeometry>
        </mxCell>
      </root>
    </mxGraphModel>
  </diagram>
</mxfile>
